<mxfile host="app.diagrams.net" modified="2024-06-14T00:55:04.361Z" agent="Mozilla/5.0 (Windows NT 10.0; Win64; x64) AppleWebKit/537.36 (KHTML, like Gecko) Chrome/124.0.0.0 Safari/537.36" version="24.5.4" etag="VedH5V_aVhY5EM32TS6Y" type="github">
  <diagram name="第 1 页" id="c9mMufgMPwM32HDK0UnQ">
    <mxGraphModel>
      <root>
        <mxCell id="0" />
        <mxCell id="1" parent="0" />
      </root>
    </mxGraphModel>
  </diagram>
</mxfile>
